<?xml version="1.0" encoding="utf-8" ?>
<svg baseProfile="full" height="341" version="1.1" width="341" xmlns="http://www.w3.org/2000/svg" xmlns:ev="http://www.w3.org/2001/xml-events" xmlns:xlink="http://www.w3.org/1999/xlink"><defs /><path d="M 201,211 L 200,212 L 197,212 L 200,212 L 201,213 L 204,213 L 205,214 L 209,214 L 210,215 L 213,215 L 214,216 L 218,216 L 219,217 L 222,217 L 223,218 L 226,218 L 227,219 L 230,219 L 231,220 L 234,220 L 235,221 L 238,221 L 239,222 L 243,222 L 244,223 L 248,223 L 249,224 L 252,224 L 253,225 L 256,225 L 257,226 L 260,226 L 261,227 L 264,227 L 265,228 L 268,228 L 269,229 L 273,229 L 274,230 L 276,230 L 277,231 L 281,231 L 282,232 L 285,232 L 286,233 L 289,233 L 290,234 L 293,234 L 294,235 L 297,235 L 298,236 L 302,236 L 303,237 L 306,237 L 307,238 L 310,238 L 311,239 L 315,239 L 316,240 L 319,240 L 320,241 L 323,241 L 324,242 L 327,242 L 328,243 L 331,243 L 332,244 L 335,244 L 336,245 L 340,245 L 340,242 L 337,242 L 336,241 L 332,241 L 331,240 L 328,240 L 327,239 L 324,239 L 323,238 L 319,238 L 318,237 L 315,237 L 314,236 L 310,236 L 309,235 L 306,235 L 305,234 L 302,234 L 301,233 L 297,233 L 296,232 L 293,232 L 292,231 L 289,231 L 288,230 L 284,230 L 283,229 L 280,229 L 279,228 L 276,228 L 275,227 L 271,227 L 270,226 L 267,226 L 266,225 L 263,225 L 262,224 L 258,224 L 257,223 L 254,223 L 253,222 L 249,222 L 248,221 L 245,221 L 244,220 L 241,220 L 240,219 L 236,219 L 235,218 L 232,218 L 231,217 L 227,217 L 226,216 L 223,216 L 222,215 L 218,215 L 217,214 L 214,214 L 213,213 L 209,213 L 208,212 L 204,212 L 203,211 Z" fill="black" /><path d="M 85,188 L 87,188 L 88,189 L 89,189 L 88,189 L 87,188 Z" fill="black" /><path d="M 43,169 L 42,170 L 41,170 L 42,170 L 43,169 L 44,169 L 45,170 L 48,170 L 49,171 L 51,171 L 52,172 L 54,172 L 55,173 L 58,173 L 59,174 L 62,174 L 63,175 L 65,175 L 63,175 L 62,174 L 59,174 L 58,173 L 56,173 L 55,172 L 52,172 L 51,171 L 49,171 L 48,170 L 45,170 L 44,169 Z" fill="black" /><path d="M 40,168 L 39,169 L 38,169 L 39,169 L 40,168 L 41,168 Z" fill="black" /><path d="M 0,165 L 0,198 L 1,198 L 2,199 L 4,199 L 5,200 L 6,200 L 7,201 L 9,201 L 10,202 L 12,202 L 13,203 L 15,203 L 16,204 L 18,204 L 19,205 L 21,205 L 22,206 L 24,206 L 25,207 L 26,207 L 27,208 L 29,208 L 30,209 L 32,209 L 33,210 L 35,210 L 36,211 L 38,211 L 39,212 L 41,212 L 42,213 L 44,213 L 45,214 L 47,214 L 48,215 L 50,215 L 51,216 L 53,216 L 54,217 L 56,217 L 57,218 L 59,218 L 60,219 L 62,219 L 63,220 L 64,220 L 65,221 L 67,221 L 68,222 L 71,222 L 72,223 L 73,223 L 74,224 L 76,224 L 77,225 L 79,225 L 80,226 L 82,226 L 83,227 L 85,227 L 86,228 L 88,228 L 89,229 L 91,229 L 92,230 L 94,230 L 95,231 L 98,231 L 99,232 L 100,232 L 101,233 L 103,233 L 104,234 L 106,234 L 107,235 L 109,235 L 110,236 L 112,236 L 113,237 L 116,237 L 117,238 L 119,238 L 120,239 L 122,239 L 123,240 L 124,240 L 125,241 L 128,241 L 129,242 L 131,242 L 132,243 L 134,243 L 135,244 L 137,244 L 138,245 L 140,245 L 141,246 L 143,246 L 144,247 L 147,247 L 148,248 L 150,248 L 151,249 L 153,249 L 154,250 L 156,250 L 157,251 L 159,251 L 160,252 L 162,252 L 163,253 L 165,253 L 166,254 L 169,254 L 170,255 L 172,255 L 173,256 L 175,256 L 176,257 L 178,257 L 179,258 L 182,258 L 183,259 L 185,259 L 186,260 L 188,260 L 189,261 L 192,261 L 193,262 L 195,262 L 196,263 L 198,263 L 199,264 L 201,264 L 202,265 L 204,265 L 205,266 L 207,266 L 208,267 L 210,267 L 211,268 L 214,268 L 215,269 L 217,269 L 218,270 L 220,270 L 221,271 L 224,271 L 225,272 L 227,272 L 228,273 L 230,273 L 231,274 L 233,274 L 234,275 L 236,275 L 237,276 L 240,276 L 241,277 L 243,277 L 244,278 L 246,278 L 247,279 L 250,279 L 251,280 L 253,280 L 254,281 L 256,281 L 257,282 L 259,282 L 260,283 L 263,283 L 264,284 L 266,284 L 267,285 L 269,285 L 270,286 L 273,286 L 274,287 L 276,287 L 277,288 L 279,288 L 280,289 L 282,289 L 283,290 L 282,291 L 279,291 L 278,290 L 276,290 L 275,289 L 273,289 L 272,288 L 269,288 L 268,287 L 266,287 L 265,286 L 262,286 L 261,285 L 259,285 L 258,284 L 255,284 L 254,283 L 253,283 L 252,282 L 249,282 L 248,281 L 246,281 L 245,280 L 243,280 L 242,279 L 239,279 L 238,278 L 236,278 L 235,277 L 232,277 L 231,276 L 229,276 L 228,275 L 225,275 L 224,274 L 221,274 L 220,273 L 218,273 L 217,272 L 215,272 L 214,271 L 212,271 L 211,270 L 209,270 L 208,269 L 206,269 L 205,268 L 203,268 L 202,267 L 198,267 L 197,266 L 195,266 L 194,265 L 193,265 L 192,264 L 189,264 L 188,263 L 186,263 L 185,262 L 183,262 L 182,261 L 180,261 L 179,260 L 176,260 L 175,259 L 173,259 L 172,258 L 169,258 L 168,257 L 166,257 L 165,256 L 163,256 L 162,255 L 159,255 L 158,254 L 156,254 L 155,253 L 153,253 L 152,252 L 150,252 L 149,251 L 147,251 L 146,250 L 144,250 L 143,249 L 141,249 L 140,248 L 137,248 L 136,247 L 134,247 L 133,246 L 131,246 L 130,245 L 128,245 L 127,244 L 125,244 L 124,243 L 122,243 L 121,242 L 119,242 L 118,241 L 116,241 L 115,240 L 113,240 L 112,239 L 109,239 L 108,238 L 106,238 L 105,237 L 103,237 L 102,236 L 100,236 L 99,235 L 97,235 L 96,234 L 94,234 L 93,233 L 91,233 L 90,232 L 88,232 L 87,231 L 86,231 L 85,230 L 83,230 L 82,229 L 79,229 L 78,228 L 76,228 L 75,227 L 73,227 L 72,226 L 71,226 L 70,225 L 67,225 L 66,224 L 65,224 L 64,223 L 62,223 L 61,222 L 59,222 L 58,221 L 56,221 L 55,220 L 52,220 L 51,219 L 49,219 L 48,218 L 46,218 L 45,217 L 43,217 L 42,216 L 40,216 L 39,215 L 37,215 L 36,214 L 34,214 L 33,213 L 31,213 L 30,212 L 28,212 L 27,211 L 26,211 L 25,210 L 23,210 L 22,209 L 20,209 L 19,208 L 17,208 L 16,207 L 14,207 L 13,206 L 11,206 L 10,205 L 9,205 L 8,204 L 6,204 L 5,203 L 3,203 L 2,202 L 1,202 L 0,201 L 0,204 L 1,204 L 2,205 L 4,205 L 5,206 L 7,206 L 8,207 L 9,207 L 10,208 L 12,208 L 13,209 L 14,209 L 15,210 L 17,210 L 18,211 L 19,211 L 20,212 L 22,212 L 23,213 L 25,213 L 26,214 L 27,214 L 28,215 L 30,215 L 31,216 L 32,216 L 33,217 L 35,217 L 36,218 L 38,218 L 39,219 L 40,219 L 41,220 L 43,220 L 44,221 L 45,221 L 46,222 L 48,222 L 49,223 L 51,223 L 52,224 L 54,224 L 55,225 L 57,225 L 58,226 L 60,226 L 61,227 L 62,227 L 63,228 L 65,228 L 66,229 L 68,229 L 69,230 L 71,230 L 72,231 L 74,231 L 75,232 L 77,232 L 78,233 L 80,233 L 81,234 L 82,234 L 83,235 L 85,235 L 86,236 L 88,236 L 89,237 L 90,237 L 91,238 L 93,238 L 94,239 L 96,239 L 97,240 L 99,240 L 100,241 L 102,241 L 103,242 L 105,242 L 106,243 L 108,243 L 109,244 L 110,244 L 111,245 L 113,245 L 114,246 L 116,246 L 117,247 L 119,247 L 120,248 L 122,248 L 123,249 L 125,249 L 126,250 L 128,250 L 129,251 L 131,251 L 132,252 L 134,252 L 135,253 L 136,253 L 137,254 L 140,254 L 141,255 L 143,255 L 144,256 L 145,256 L 146,257 L 148,257 L 149,258 L 151,258 L 152,259 L 154,259 L 155,260 L 157,260 L 158,261 L 160,261 L 161,262 L 163,262 L 164,263 L 166,263 L 167,264 L 169,264 L 170,265 L 172,265 L 173,266 L 175,266 L 176,267 L 178,267 L 179,268 L 181,268 L 182,269 L 181,270 L 178,270 L 177,269 L 175,269 L 174,268 L 172,268 L 171,267 L 169,267 L 168,266 L 166,266 L 165,265 L 163,265 L 162,264 L 160,264 L 159,263 L 157,263 L 156,262 L 154,262 L 153,261 L 151,261 L 150,260 L 148,260 L 147,259 L 145,259 L 144,258 L 142,258 L 141,257 L 139,257 L 138,256 L 136,256 L 135,255 L 134,255 L 133,254 L 130,254 L 129,253 L 127,253 L 126,252 L 124,252 L 123,251 L 122,251 L 121,250 L 119,250 L 118,249 L 116,249 L 115,248 L 113,248 L 112,247 L 110,247 L 109,246 L 107,246 L 106,245 L 104,245 L 103,244 L 101,244 L 100,243 L 98,243 L 97,242 L 95,242 L 94,241 L 92,241 L 91,240 L 90,240 L 89,239 L 87,239 L 86,238 L 84,238 L 83,237 L 81,237 L 80,236 L 79,236 L 78,235 L 76,235 L 75,234 L 73,234 L 72,233 L 70,233 L 69,232 L 67,232 L 66,231 L 65,231 L 64,230 L 62,230 L 61,229 L 59,229 L 58,228 L 56,228 L 55,227 L 54,227 L 53,226 L 51,226 L 50,225 L 48,225 L 47,224 L 45,224 L 44,223 L 43,223 L 42,222 L 40,222 L 39,221 L 37,221 L 36,220 L 34,220 L 33,219 L 32,219 L 31,218 L 29,218 L 28,217 L 27,217 L 26,216 L 24,216 L 23,215 L 22,215 L 21,214 L 19,214 L 18,213 L 17,213 L 16,212 L 14,212 L 13,211 L 11,211 L 10,210 L 9,210 L 8,209 L 6,209 L 5,208 L 4,208 L 3,207 L 1,207 L 0,206 L 0,207 L 2,207 L 3,208 L 4,208 L 5,209 L 7,209 L 8,210 L 9,210 L 10,211 L 12,211 L 13,212 L 15,212 L 16,213 L 17,213 L 18,214 L 20,214 L 21,215 L 22,215 L 23,216 L 25,216 L 26,217 L 27,217 L 28,218 L 30,218 L 31,219 L 32,219 L 33,220 L 35,220 L 36,221 L 38,221 L 39,222 L 40,222 L 41,223 L 43,223 L 44,224 L 46,224 L 47,225 L 48,225 L 49,226 L 51,226 L 52,227 L 54,227 L 55,228 L 57,228 L 58,229 L 60,229 L 61,230 L 63,230 L 64,231 L 66,231 L 67,232 L 69,232 L 70,233 L 71,233 L 72,234 L 74,234 L 75,235 L 77,235 L 78,236 L 79,236 L 80,237 L 82,237 L 83,238 L 85,238 L 86,239 L 88,239 L 89,240 L 91,240 L 92,241 L 94,241 L 95,242 L 96,242 L 97,243 L 99,243 L 100,244 L 102,244 L 103,245 L 105,245 L 106,246 L 108,246 L 109,247 L 111,247 L 112,248 L 113,248 L 114,249 L 116,249 L 117,250 L 119,250 L 120,251 L 122,251 L 123,252 L 125,252 L 126,253 L 128,253 L 129,254 L 131,254 L 132,255 L 134,255 L 135,256 L 136,256 L 137,257 L 140,257 L 141,258 L 142,258 L 143,259 L 146,259 L 147,260 L 149,260 L 150,261 L 151,261 L 152,262 L 154,262 L 155,263 L 157,263 L 158,264 L 160,264 L 161,265 L 163,265 L 164,266 L 166,266 L 167,267 L 169,267 L 170,268 L 172,268 L 173,269 L 175,269 L 176,270 L 178,270 L 179,271 L 181,271 L 182,272 L 183,272 L 184,273 L 187,273 L 188,274 L 190,274 L 191,275 L 193,275 L 194,276 L 196,276 L 197,277 L 199,277 L 200,278 L 202,278 L 203,279 L 205,279 L 206,280 L 208,280 L 209,281 L 211,281 L 212,282 L 214,282 L 215,283 L 216,283 L 217,284 L 220,284 L 221,285 L 223,285 L 224,286 L 225,286 L 226,287 L 229,287 L 230,288 L 231,288 L 232,289 L 235,289 L 236,290 L 238,290 L 239,291 L 241,291 L 242,292 L 244,292 L 245,293 L 247,293 L 248,294 L 250,294 L 251,295 L 253,295 L 254,296 L 253,297 L 250,297 L 249,296 L 247,296 L 246,295 L 244,295 L 243,294 L 241,294 L 240,293 L 237,293 L 236,292 L 235,292 L 234,291 L 231,291 L 230,290 L 228,290 L 227,289 L 225,289 L 224,288 L 222,288 L 221,287 L 219,287 L 218,286 L 216,286 L 215,285 L 213,285 L 212,284 L 210,284 L 209,283 L 207,283 L 206,282 L 204,282 L 203,281 L 201,281 L 200,280 L 198,280 L 197,279 L 194,279 L 193,278 L 191,278 L 190,277 L 188,277 L 187,276 L 186,276 L 185,275 L 183,275 L 182,274 L 180,274 L 179,273 L 177,273 L 176,272 L 174,272 L 173,271 L 170,271 L 169,270 L 167,270 L 166,269 L 165,269 L 164,268 L 162,268 L 161,267 L 159,267 L 158,266 L 156,266 L 155,265 L 153,265 L 152,264 L 150,264 L 149,263 L 147,263 L 146,262 L 144,262 L 143,261 L 141,261 L 140,260 L 137,260 L 136,259 L 135,260 L 134,260 L 133,259 L 134,258 L 132,258 L 131,257 L 130,257 L 129,258 L 128,258 L 127,257 L 128,256 L 127,256 L 126,257 L 125,257 L 124,256 L 125,255 L 124,255 L 123,256 L 122,256 L 121,255 L 122,254 L 121,255 L 119,255 L 118,254 L 119,253 L 118,254 L 116,254 L 115,253 L 116,252 L 115,253 L 113,253 L 112,252 L 111,252 L 110,251 L 110,250 L 109,251 L 108,251 L 107,250 L 106,250 L 104,248 L 103,249 L 102,249 L 101,248 L 99,248 L 98,247 L 96,247 L 95,246 L 96,245 L 97,245 L 96,245 L 95,246 L 93,246 L 92,245 L 91,245 L 90,244 L 88,244 L 87,243 L 85,243 L 84,242 L 82,242 L 81,241 L 80,241 L 79,240 L 77,240 L 76,239 L 74,239 L 73,238 L 71,238 L 70,237 L 69,237 L 68,236 L 66,236 L 65,235 L 63,235 L 62,234 L 60,234 L 59,233 L 58,233 L 57,232 L 55,232 L 54,231 L 53,231 L 52,230 L 50,230 L 49,229 L 47,229 L 46,228 L 44,228 L 43,227 L 41,227 L 40,226 L 39,226 L 38,225 L 36,225 L 35,224 L 33,224 L 32,223 L 30,223 L 29,222 L 28,222 L 27,221 L 25,221 L 24,220 L 23,220 L 22,219 L 20,219 L 19,218 L 17,218 L 16,217 L 15,217 L 14,216 L 12,216 L 11,215 L 10,215 L 9,214 L 7,214 L 6,213 L 4,213 L 3,212 L 2,212 L 1,211 L 0,211 L 0,340 L 340,340 L 340,309 L 339,309 L 338,308 L 339,307 L 340,307 L 340,249 L 339,249 L 338,248 L 334,248 L 333,247 L 330,247 L 329,246 L 326,246 L 325,245 L 321,245 L 320,244 L 317,244 L 316,243 L 312,243 L 311,242 L 308,242 L 307,241 L 304,241 L 303,240 L 299,240 L 298,239 L 295,239 L 294,238 L 291,238 L 290,237 L 286,237 L 285,236 L 282,236 L 281,235 L 278,235 L 277,234 L 273,234 L 272,233 L 269,233 L 268,232 L 265,232 L 264,231 L 260,231 L 259,230 L 256,230 L 255,229 L 251,229 L 250,228 L 247,228 L 246,227 L 243,227 L 242,226 L 237,226 L 236,225 L 234,225 L 233,224 L 229,224 L 228,223 L 226,223 L 225,222 L 221,222 L 220,221 L 219,222 L 218,222 L 216,220 L 214,220 L 213,221 L 212,220 L 212,219 L 208,219 L 207,218 L 203,218 L 202,217 L 199,217 L 198,216 L 194,216 L 193,215 L 191,215 L 190,214 L 187,214 L 186,213 L 183,213 L 182,212 L 178,212 L 177,211 L 175,211 L 174,210 L 171,210 L 170,209 L 167,209 L 166,208 L 163,208 L 162,207 L 159,207 L 158,206 L 154,206 L 153,205 L 151,205 L 150,204 L 148,204 L 147,203 L 144,203 L 143,202 L 140,202 L 139,201 L 137,201 L 136,200 L 132,200 L 131,199 L 128,199 L 127,198 L 124,198 L 123,197 L 120,197 L 119,196 L 115,196 L 114,195 L 111,195 L 110,194 L 107,194 L 106,193 L 103,193 L 102,192 L 99,192 L 98,191 L 95,191 L 97,191 L 98,192 L 101,192 L 102,193 L 105,193 L 106,194 L 109,194 L 110,195 L 112,195 L 113,196 L 117,196 L 118,197 L 122,197 L 123,198 L 125,198 L 126,199 L 129,199 L 130,200 L 133,200 L 134,201 L 136,201 L 137,202 L 140,202 L 141,203 L 143,203 L 144,204 L 146,204 L 147,205 L 150,205 L 151,206 L 154,206 L 155,207 L 158,207 L 159,208 L 162,208 L 163,209 L 166,209 L 167,210 L 170,210 L 171,211 L 173,211 L 174,212 L 177,212 L 178,213 L 181,213 L 182,214 L 185,214 L 186,215 L 190,215 L 191,216 L 194,216 L 195,217 L 198,217 L 199,218 L 202,218 L 203,219 L 206,219 L 207,220 L 206,221 L 202,221 L 201,220 L 198,220 L 197,219 L 194,219 L 193,218 L 189,218 L 188,217 L 185,217 L 184,216 L 181,216 L 180,215 L 177,215 L 176,214 L 173,214 L 172,213 L 169,213 L 168,212 L 165,212 L 164,211 L 161,211 L 160,210 L 157,210 L 156,209 L 153,209 L 152,208 L 149,208 L 148,207 L 145,207 L 144,206 L 141,206 L 140,205 L 137,205 L 136,204 L 134,204 L 133,203 L 130,203 L 129,202 L 126,202 L 125,201 L 122,201 L 121,200 L 118,200 L 117,199 L 114,199 L 113,198 L 111,198 L 110,197 L 107,197 L 106,196 L 103,196 L 102,195 L 99,195 L 98,194 L 96,194 L 95,193 L 92,193 L 91,192 L 88,192 L 87,191 L 85,191 L 84,190 L 81,190 L 80,189 L 78,189 L 77,188 L 74,188 L 73,187 L 71,187 L 70,186 L 67,186 L 66,185 L 64,185 L 63,184 L 60,184 L 59,183 L 57,183 L 56,182 L 54,182 L 53,181 L 51,181 L 50,180 L 47,180 L 46,179 L 44,179 L 43,178 L 40,178 L 39,177 L 37,177 L 36,176 L 34,176 L 33,175 L 30,175 L 29,174 L 27,174 L 26,173 L 24,173 L 23,172 L 21,172 L 20,171 L 18,171 L 17,170 L 15,170 L 14,169 L 12,169 L 11,168 L 9,168 L 8,167 L 6,167 L 5,166 L 3,166 L 2,165 Z" fill="black" /><path d="M 14,107 L 13,108 L 6,108 L 5,109 L 0,109 L 0,110 L 1,110 L 2,109 L 7,109 L 8,108 L 13,108 L 14,107 L 19,107 Z" fill="black" /><path d="M 115,103 L 114,104 L 102,104 L 103,105 L 104,105 L 105,104 L 114,104 L 115,103 L 129,103 Z" fill="black" /><path d="M 122,100 L 121,101 L 96,101 L 95,102 L 78,102 L 77,103 L 65,103 L 64,104 L 55,104 L 54,105 L 46,105 L 45,106 L 38,106 L 37,107 L 30,107 L 29,108 L 23,108 L 22,109 L 17,109 L 16,110 L 11,110 L 10,111 L 5,111 L 4,112 L 0,112 L 0,120 L 1,120 L 2,119 L 3,119 L 5,117 L 6,117 L 7,116 L 8,116 L 9,115 L 11,115 L 12,114 L 14,114 L 15,113 L 17,113 L 18,112 L 21,112 L 22,111 L 25,111 L 26,110 L 30,110 L 31,109 L 35,109 L 36,108 L 40,108 L 41,107 L 48,107 L 49,106 L 57,106 L 58,105 L 67,105 L 68,104 L 78,104 L 79,103 L 89,103 L 90,102 L 103,102 L 104,101 L 122,101 L 123,100 L 142,100 Z" fill="black" /><path d="M 153,99 L 152,100 L 151,100 L 152,100 L 153,99 L 163,99 Z" fill="black" /><path d="M 0,0 L 0,101 L 4,101 L 5,100 L 16,100 L 17,99 L 28,99 L 29,98 L 45,98 L 46,97 L 64,97 L 65,96 L 88,96 L 89,95 L 120,95 L 121,96 L 120,97 L 94,97 L 93,98 L 74,98 L 73,99 L 56,99 L 55,100 L 38,100 L 37,101 L 24,101 L 23,102 L 12,102 L 11,103 L 1,103 L 0,104 L 0,107 L 3,107 L 4,106 L 10,106 L 11,105 L 19,105 L 20,104 L 28,104 L 29,103 L 39,103 L 40,102 L 51,102 L 52,101 L 65,101 L 66,100 L 79,100 L 80,99 L 97,99 L 98,98 L 120,98 L 121,97 L 154,97 L 155,96 L 196,96 L 197,95 L 224,95 L 225,94 L 226,94 L 227,95 L 228,94 L 265,94 L 266,93 L 271,93 L 272,94 L 271,95 L 268,95 L 267,96 L 255,96 L 254,97 L 239,97 L 238,98 L 223,98 L 222,99 L 209,99 L 208,100 L 191,100 L 190,101 L 172,101 L 171,102 L 146,102 L 146,103 L 145,104 L 132,104 L 131,105 L 122,105 L 121,106 L 115,106 L 114,107 L 106,107 L 105,108 L 98,108 L 97,109 L 88,109 L 87,110 L 80,110 L 79,111 L 71,111 L 70,112 L 64,112 L 63,113 L 58,113 L 57,114 L 52,114 L 51,115 L 47,115 L 46,116 L 43,116 L 42,117 L 39,117 L 38,118 L 35,118 L 34,119 L 32,119 L 31,120 L 29,120 L 28,121 L 27,121 L 26,122 L 25,122 L 24,123 L 23,123 L 22,124 L 21,124 L 20,125 L 19,125 L 15,129 L 15,130 L 14,131 L 15,132 L 15,134 L 16,135 L 16,136 L 19,139 L 20,139 L 21,140 L 22,140 L 24,142 L 26,142 L 27,143 L 28,143 L 29,144 L 31,144 L 32,145 L 34,145 L 35,146 L 36,146 L 37,145 L 38,145 L 39,146 L 41,146 L 42,147 L 43,147 L 44,148 L 46,148 L 47,149 L 50,149 L 51,150 L 53,150 L 54,151 L 56,151 L 57,152 L 59,152 L 60,153 L 62,153 L 63,154 L 66,154 L 67,155 L 70,155 L 71,156 L 73,156 L 74,157 L 77,157 L 78,158 L 81,158 L 82,159 L 85,159 L 86,160 L 89,160 L 90,161 L 93,161 L 94,162 L 96,162 L 97,163 L 100,163 L 101,164 L 104,164 L 105,165 L 108,165 L 109,166 L 113,166 L 114,167 L 117,167 L 118,168 L 121,168 L 122,169 L 125,169 L 126,170 L 129,170 L 130,171 L 134,171 L 135,172 L 139,172 L 140,173 L 143,173 L 144,174 L 147,174 L 148,175 L 152,175 L 153,176 L 156,176 L 157,177 L 160,177 L 161,178 L 164,178 L 165,179 L 169,179 L 170,180 L 173,180 L 174,181 L 177,181 L 178,182 L 182,182 L 183,183 L 186,183 L 187,184 L 190,184 L 191,185 L 195,185 L 196,186 L 200,186 L 201,187 L 204,187 L 205,188 L 209,188 L 210,189 L 213,189 L 214,190 L 218,190 L 219,191 L 223,191 L 224,192 L 228,192 L 229,193 L 232,193 L 233,194 L 237,194 L 238,195 L 242,195 L 243,196 L 246,196 L 247,197 L 251,197 L 252,198 L 256,198 L 257,199 L 261,199 L 262,200 L 265,200 L 266,201 L 270,201 L 271,202 L 274,202 L 275,203 L 274,204 L 270,204 L 269,203 L 265,203 L 264,202 L 261,202 L 260,201 L 255,201 L 254,200 L 250,200 L 249,199 L 245,199 L 244,198 L 241,198 L 240,197 L 235,197 L 234,196 L 231,196 L 230,195 L 226,195 L 225,194 L 221,194 L 220,193 L 216,193 L 215,192 L 211,192 L 210,191 L 207,191 L 206,190 L 202,190 L 201,189 L 197,189 L 196,188 L 193,188 L 192,187 L 188,187 L 187,186 L 184,186 L 183,185 L 179,185 L 178,184 L 174,184 L 173,183 L 170,183 L 169,182 L 165,182 L 164,181 L 161,181 L 160,180 L 156,180 L 155,179 L 151,179 L 150,178 L 147,178 L 146,177 L 142,177 L 141,176 L 138,176 L 137,175 L 133,175 L 132,174 L 128,174 L 127,173 L 123,173 L 122,172 L 119,172 L 118,171 L 115,171 L 114,170 L 110,170 L 109,169 L 106,169 L 105,168 L 102,168 L 101,167 L 98,167 L 97,166 L 93,166 L 92,165 L 89,165 L 88,164 L 85,164 L 84,163 L 81,163 L 80,162 L 77,162 L 76,161 L 73,161 L 72,160 L 69,160 L 68,159 L 65,159 L 64,158 L 61,158 L 60,157 L 57,157 L 56,156 L 53,156 L 52,155 L 50,155 L 49,154 L 46,154 L 45,153 L 42,153 L 41,152 L 39,152 L 38,151 L 35,151 L 34,150 L 32,150 L 31,149 L 28,149 L 27,148 L 25,148 L 24,147 L 22,147 L 21,146 L 20,146 L 19,145 L 17,145 L 16,144 L 15,144 L 13,142 L 12,142 L 11,141 L 10,141 L 5,136 L 5,135 L 4,134 L 4,129 L 6,127 L 7,127 L 8,128 L 7,129 L 7,130 L 6,131 L 7,132 L 7,133 L 8,134 L 8,135 L 9,135 L 11,137 L 9,135 L 9,133 L 8,132 L 8,131 L 9,130 L 9,129 L 13,125 L 12,124 L 13,123 L 14,123 L 15,122 L 16,122 L 17,121 L 19,121 L 20,120 L 21,120 L 22,119 L 24,119 L 25,118 L 27,118 L 28,117 L 31,117 L 32,116 L 34,116 L 35,115 L 39,115 L 40,114 L 44,114 L 45,113 L 48,113 L 49,112 L 53,112 L 54,111 L 59,111 L 60,110 L 67,110 L 68,109 L 74,109 L 75,108 L 82,108 L 83,107 L 92,107 L 93,106 L 101,106 L 100,105 L 99,106 L 92,106 L 91,105 L 90,105 L 90,106 L 89,107 L 85,107 L 84,106 L 80,106 L 78,108 L 75,108 L 74,107 L 72,107 L 71,108 L 57,108 L 56,109 L 48,109 L 47,110 L 41,110 L 40,111 L 35,111 L 34,112 L 30,112 L 29,113 L 26,113 L 25,114 L 22,114 L 21,115 L 19,115 L 18,116 L 16,116 L 15,117 L 13,117 L 12,118 L 11,118 L 10,119 L 9,119 L 8,120 L 7,120 L 6,121 L 5,121 L 4,122 L 5,122 L 6,123 L 5,124 L 4,124 L 3,125 L 2,125 L 1,126 L 0,126 L 0,128 L 1,129 L 1,130 L 0,131 L 0,132 L 1,133 L 1,134 L 0,135 L 0,139 L 1,140 L 2,140 L 3,141 L 4,141 L 5,142 L 6,142 L 7,143 L 8,143 L 9,144 L 10,144 L 11,145 L 12,145 L 13,146 L 15,146 L 16,147 L 17,147 L 18,148 L 20,148 L 21,149 L 22,149 L 23,150 L 25,150 L 26,151 L 28,151 L 29,152 L 32,152 L 33,153 L 35,153 L 36,154 L 38,154 L 39,155 L 42,155 L 43,156 L 45,156 L 46,157 L 48,157 L 49,158 L 52,158 L 53,159 L 55,159 L 56,160 L 59,160 L 60,161 L 63,161 L 64,162 L 66,162 L 67,163 L 70,163 L 71,164 L 73,164 L 74,165 L 76,165 L 77,166 L 80,166 L 81,167 L 82,167 L 83,168 L 86,168 L 87,169 L 90,169 L 91,170 L 93,170 L 94,171 L 97,171 L 98,172 L 101,172 L 102,173 L 105,173 L 106,174 L 109,174 L 110,175 L 113,175 L 114,176 L 117,176 L 118,177 L 121,177 L 122,178 L 125,178 L 126,179 L 130,179 L 131,180 L 134,180 L 135,181 L 139,181 L 140,182 L 143,182 L 144,183 L 147,183 L 148,184 L 152,184 L 153,185 L 156,185 L 157,186 L 160,186 L 161,187 L 165,187 L 166,188 L 169,188 L 170,189 L 173,189 L 174,190 L 177,190 L 178,191 L 182,191 L 183,192 L 186,192 L 187,193 L 191,193 L 192,194 L 195,194 L 196,195 L 199,195 L 200,196 L 203,196 L 204,197 L 209,197 L 210,198 L 213,198 L 214,199 L 216,199 L 217,200 L 221,200 L 222,201 L 226,201 L 227,202 L 230,202 L 231,203 L 235,203 L 236,204 L 239,204 L 240,205 L 244,205 L 245,206 L 249,206 L 250,207 L 253,207 L 254,208 L 257,208 L 258,209 L 257,210 L 253,210 L 252,209 L 248,209 L 247,208 L 244,208 L 243,207 L 239,207 L 238,206 L 234,206 L 233,205 L 229,205 L 228,204 L 225,204 L 224,203 L 220,203 L 219,202 L 215,202 L 214,201 L 210,201 L 209,200 L 206,200 L 205,199 L 201,199 L 200,198 L 197,198 L 196,197 L 193,197 L 192,196 L 189,196 L 188,195 L 184,195 L 183,194 L 180,194 L 179,193 L 176,193 L 175,192 L 171,192 L 170,191 L 167,191 L 166,190 L 163,190 L 162,189 L 158,189 L 157,188 L 153,188 L 152,187 L 148,187 L 147,186 L 143,186 L 142,185 L 139,185 L 138,184 L 135,184 L 134,183 L 131,183 L 130,182 L 126,182 L 125,181 L 122,181 L 121,180 L 118,180 L 117,179 L 114,179 L 113,178 L 109,178 L 108,177 L 105,177 L 104,176 L 101,176 L 100,175 L 97,175 L 96,174 L 93,174 L 92,173 L 89,173 L 88,172 L 85,172 L 84,171 L 81,171 L 80,170 L 77,170 L 76,169 L 73,169 L 72,168 L 69,168 L 68,167 L 65,167 L 64,166 L 61,166 L 60,165 L 57,165 L 56,164 L 53,164 L 52,163 L 49,163 L 48,162 L 46,162 L 45,161 L 42,161 L 41,160 L 39,160 L 38,159 L 35,159 L 34,158 L 32,158 L 31,157 L 29,157 L 28,156 L 26,156 L 25,155 L 23,155 L 22,154 L 20,154 L 19,153 L 17,153 L 16,152 L 15,152 L 16,152 L 17,153 L 19,153 L 20,154 L 22,154 L 23,155 L 24,155 L 25,156 L 24,157 L 22,157 L 21,158 L 20,157 L 20,156 L 18,156 L 17,155 L 15,155 L 14,154 L 12,154 L 11,153 L 9,153 L 8,152 L 7,152 L 6,151 L 5,151 L 4,150 L 3,150 L 1,148 L 0,148 L 0,155 L 1,156 L 3,156 L 4,157 L 6,157 L 7,158 L 9,158 L 10,159 L 11,159 L 12,160 L 14,160 L 15,161 L 17,161 L 18,162 L 20,162 L 21,163 L 22,163 L 23,164 L 25,164 L 26,165 L 28,165 L 29,166 L 31,166 L 32,167 L 34,167 L 35,168 L 36,168 L 37,167 L 38,167 L 37,167 L 36,168 L 35,168 L 34,167 L 35,166 L 33,166 L 32,165 L 33,164 L 36,164 L 37,165 L 39,165 L 40,166 L 42,166 L 43,167 L 46,167 L 47,168 L 49,168 L 50,169 L 52,169 L 53,170 L 56,170 L 57,171 L 59,171 L 60,172 L 63,172 L 64,173 L 66,173 L 67,174 L 70,174 L 71,175 L 73,175 L 74,176 L 77,176 L 78,177 L 81,177 L 82,178 L 84,178 L 85,179 L 88,179 L 89,180 L 91,180 L 92,181 L 95,181 L 96,182 L 99,182 L 100,183 L 102,183 L 103,184 L 107,184 L 108,185 L 110,185 L 111,186 L 114,186 L 115,187 L 118,187 L 119,188 L 122,188 L 123,189 L 126,189 L 127,190 L 129,190 L 130,191 L 133,191 L 134,192 L 137,192 L 138,193 L 141,193 L 142,194 L 145,194 L 146,195 L 149,195 L 150,196 L 153,196 L 154,197 L 156,197 L 157,198 L 160,198 L 161,199 L 165,199 L 166,200 L 169,200 L 170,201 L 173,201 L 174,202 L 178,202 L 179,203 L 181,203 L 182,204 L 185,204 L 186,205 L 190,205 L 191,206 L 194,206 L 195,207 L 198,207 L 199,208 L 202,208 L 203,209 L 207,209 L 208,210 L 210,210 L 211,211 L 215,211 L 216,212 L 219,212 L 220,213 L 223,213 L 224,214 L 228,214 L 229,215 L 232,215 L 233,216 L 237,216 L 238,217 L 241,217 L 242,218 L 245,218 L 246,219 L 250,219 L 251,220 L 254,220 L 255,221 L 259,221 L 260,222 L 263,222 L 264,223 L 268,223 L 269,224 L 272,224 L 273,225 L 276,225 L 277,226 L 280,226 L 281,227 L 285,227 L 286,228 L 289,228 L 290,229 L 293,229 L 294,230 L 297,230 L 298,231 L 302,231 L 303,232 L 306,232 L 307,233 L 311,233 L 312,234 L 315,234 L 316,235 L 319,235 L 320,236 L 324,236 L 325,237 L 328,237 L 329,238 L 332,238 L 333,239 L 337,239 L 338,240 L 340,240 L 340,228 L 337,228 L 336,227 L 337,226 L 340,226 L 340,218 L 338,218 L 337,217 L 338,216 L 340,216 L 340,0 Z" fill="black" /></svg>